<svg xmlns="http://www.w3.org/2000/svg" xmlns:xlink="http://www.w3.org/1999/xlink" width="600" zoomAndPan="magnify" viewBox="0 0 450 449.999984" height="600" preserveAspectRatio="xMidYMid meet" version="1.0"><defs><clipPath id="b0654f75a2"><path d="M 403 26.382812 L 450 26.382812 L 450 74 L 403 74 Z M 403 26.382812 " clip-rule="nonzero"/></clipPath><clipPath id="17fc36ade8"><path d="M 254 355 L 324 355 L 324 423.882812 L 254 423.882812 Z M 254 355 " clip-rule="nonzero"/></clipPath></defs><path fill="#d4e7ff" d="M 413.144531 252.316406 C 408.546875 351.742188 320.121094 380.046875 209.976562 382.171875 C 42.023438 385.417969 22.472656 332.039062 22.472656 232.511719 C 22.472656 132.980469 59.089844 30.210938 156.171875 37.785156 C 202.292969 41.386719 254.644531 117.851562 293.839844 143.226562 C 347.992188 178.28125 416.605469 177.625 413.144531 252.316406 Z M 413.144531 252.316406 " fill-opacity="1" fill-rule="nonzero"/><path stroke-linecap="butt" transform="matrix(0.732897, 0, 0, 0.733395, 0.000462197, 26.384363)" fill="none" stroke-linejoin="miter" d="M 27.144409 364.841241 C 27.144409 364.841241 74.878744 344.020898 96.816498 276.148391 C 118.770242 208.265231 158.541748 151.103829 233.932791 147.274249 C 309.307844 143.428691 390.838899 148.153082 417.786733 107.700152 C 444.718578 67.247221 387.150628 66.325779 386.340487 137.303494 C 385.530347 208.275884 509.593782 338.444306 516.080237 439.520706 C 522.561362 540.597106 438.80242 520.538418 334.736664 479.904395 C 230.665579 439.281024 122.032124 519.675564 54.321427 489.603511 C -13.3946 459.520805 -10.45784 395.211565 27.144409 364.841241 Z M 27.144409 364.841241 " stroke="#4570b4" stroke-width="1" stroke-opacity="0.4196" stroke-miterlimit="10"/><path fill="#4570b4" d="M 27.320312 236.265625 C 38.398438 236.265625 47.378906 227.28125 47.378906 216.199219 C 47.378906 205.117188 38.398438 196.132812 27.320312 196.132812 C 16.242188 196.132812 7.257812 205.117188 7.257812 216.199219 C 7.257812 227.28125 16.242188 236.265625 27.320312 236.265625 Z M 27.320312 236.265625 " fill-opacity="0.4196" fill-rule="nonzero"/><path stroke-linecap="butt" transform="matrix(0.732897, 0, 0, 0.733395, 0.000462197, 26.384363)" fill="none" stroke-linejoin="miter" d="M 61.980453 283.50928 C 75.619596 269.868733 75.619596 247.759435 61.980453 234.124214 C 48.335981 220.483667 26.217011 220.483667 12.572538 234.124214 C -1.066605 247.759435 -1.066605 269.868733 12.572538 283.50928 C 26.217011 297.1445 48.335981 297.1445 61.980453 283.50928 Z M 61.980453 283.50928 " stroke="#4570b4" stroke-width="1" stroke-opacity="0.4196" stroke-miterlimit="10"/><path fill="#4570b4" d="M 408.339844 252.316406 C 421.261719 252.316406 431.738281 241.835938 431.738281 228.910156 C 431.738281 215.984375 421.261719 205.503906 408.339844 205.503906 C 395.417969 205.503906 384.941406 215.984375 384.941406 228.910156 C 384.941406 241.835938 395.417969 252.316406 408.339844 252.316406 Z M 408.339844 252.316406 " fill-opacity="0.4196" fill-rule="nonzero"/><path stroke-linecap="butt" transform="matrix(0.732897, 0, 0, 0.733395, 0.000462197, 26.384363)" fill="none" stroke-linejoin="miter" d="M 334.182358 190.065407 L 325.569284 203.753891 L 343.914704 203.753891 Z M 334.182358 190.065407 " stroke="#4570b4" stroke-width="1" stroke-opacity="0.4196" stroke-miterlimit="10"/><path fill="#4570b4" d="M 155.847656 72.375 L 147.40625 85.773438 L 165.375 85.773438 Z M 155.847656 72.375 " fill-opacity="0.4196" fill-rule="nonzero"/><path fill="#4570b4" d="M 219.085938 99.441406 C 232.5625 99.441406 243.484375 88.515625 243.484375 75.035156 C 243.484375 61.558594 232.5625 50.632812 219.085938 50.632812 C 205.613281 50.632812 194.691406 61.558594 194.691406 75.035156 C 194.691406 88.515625 205.613281 99.441406 219.085938 99.441406 Z M 219.085938 99.441406 " fill-opacity="0.4196" fill-rule="nonzero"/><path fill="#ffffff" d="M 218.597656 72.019531 L 217.226562 69.398438 C 216.34375 67.714844 216.996094 65.632812 218.683594 64.75 C 219.824219 64.144531 220.273438 62.730469 219.671875 61.574219 L 217.621094 57.644531 C 217.019531 56.5 215.605469 56.050781 214.449219 56.65625 L 212.660156 57.59375 C 210.976562 58.476562 209.601562 59.847656 208.730469 61.535156 L 208.210938 62.542969 C 207.304688 64.28125 207.316406 66.351562 208.21875 68.089844 L 212.058594 75.433594 L 214.617188 80.332031 L 218.453125 87.675781 C 219.359375 89.414062 221.054688 90.597656 222.996094 90.847656 L 224.121094 90.996094 C 226.003906 91.242188 227.917969 90.902344 229.601562 90.015625 L 231.390625 89.082031 C 232.535156 88.476562 232.980469 87.0625 232.390625 85.90625 L 230.339844 81.976562 C 229.738281 80.832031 228.320312 80.382812 227.167969 80.976562 C 225.484375 81.859375 223.402344 81.207031 222.519531 79.519531 L 221.148438 76.898438 Z M 218.597656 72.019531 " fill-opacity="1" fill-rule="nonzero"/><path stroke-linecap="butt" transform="matrix(0.732897, 0, 0, 0.733395, 0.000462197, 26.384363)" fill="none" stroke-linejoin="miter" d="M 542.425795 441.688493 C 542.425795 445.491441 539.350459 448.585997 535.528941 448.585997 C 531.728742 448.585997 528.637416 445.50742 528.637416 441.688493 C 528.637416 437.874892 531.712752 434.796315 535.528941 434.796315 C 539.350459 434.812294 542.425795 437.890871 542.425795 441.688493 Z M 542.425795 441.688493 " stroke="#4570b4" stroke-width="1" stroke-opacity="0.4196" stroke-miterlimit="10"/><path fill="#ffffff" d="M 95.574219 83.078125 C 100.730469 83.078125 104.914062 78.894531 104.914062 73.738281 C 104.914062 68.578125 100.730469 64.394531 95.574219 64.394531 C 90.414062 64.394531 86.234375 68.578125 86.234375 73.738281 C 86.234375 78.894531 90.414062 83.078125 95.574219 83.078125 Z M 95.574219 83.078125 " fill-opacity="0.4196" fill-rule="nonzero"/><path stroke-linecap="butt" transform="matrix(0.732897, 0, 0, 0.733395, 0.000462197, 26.384363)" fill="none" stroke-linejoin="miter" d="M 478.232814 254.278775 C 485.273575 254.278775 490.976539 248.574353 490.976539 241.538366 C 490.976539 234.502379 485.273575 228.803282 478.232814 228.803282 C 471.197383 228.803282 465.49442 234.502379 465.49442 241.538366 C 465.49442 248.574353 471.197383 254.278775 478.232814 254.278775 Z M 478.232814 254.278775 " stroke="#4570b4" stroke-width="1" stroke-opacity="0.4196" stroke-miterlimit="10"/><path fill="#4570b4" d="M 56.492188 266.078125 C 61.515625 266.078125 65.589844 262.003906 65.589844 256.976562 C 65.589844 251.949219 61.515625 247.875 56.492188 247.875 C 51.464844 247.875 47.390625 251.949219 47.390625 256.976562 C 47.390625 262.003906 51.464844 266.078125 56.492188 266.078125 Z M 56.492188 266.078125 " fill-opacity="0.4196" fill-rule="nonzero"/><path stroke-linecap="butt" transform="matrix(0.732897, 0, 0, 0.733395, 0.000462197, 26.384363)" fill="none" stroke-linejoin="miter" d="M 557.157562 298.161816 C 569.320331 298.161816 579.180594 288.308238 579.180594 276.148391 C 579.180594 263.988544 569.320331 254.134966 557.157562 254.134966 C 544.994794 254.134966 535.13453 263.988544 535.13453 276.148391 C 535.13453 288.308238 544.994794 298.161816 557.157562 298.161816 Z M 557.157562 298.161816 " stroke="#ffffff" stroke-width="1" stroke-opacity="0.4196" stroke-miterlimit="10"/><path fill="#4570b4" d="M 394.621094 75.972656 L 282.765625 75.972656 C 277.980469 75.972656 274.113281 79.851562 274.113281 84.628906 L 274.113281 152.214844 C 274.113281 157 277.992188 160.867188 282.765625 160.867188 L 354.105469 160.867188 L 354.105469 177.90625 C 354.105469 180.757812 357.433594 182.308594 359.617188 180.476562 L 382.902344 160.867188 L 394.621094 160.867188 C 399.40625 160.867188 403.273438 156.988281 403.273438 152.214844 L 403.273438 84.636719 C 403.273438 79.851562 399.40625 75.972656 394.621094 75.972656 Z M 394.621094 75.972656 " fill-opacity="0.4196" fill-rule="nonzero"/><path fill="#68a8de" d="M 422.949219 84.410156 C 422.949219 94.511719 420.046875 103.925781 415.046875 111.832031 C 414.253906 113.097656 413.402344 114.335938 412.496094 115.523438 C 403.355469 127.527344 389.058594 135.257812 372.992188 135.257812 C 364.742188 135.257812 356.964844 133.226562 350.113281 129.617188 C 334.023438 121.171875 323.03125 104.089844 323.03125 84.410156 C 323.03125 82.109375 323.175781 79.84375 323.476562 77.617188 C 326.734375 52.746094 347.667969 33.550781 372.992188 33.550781 C 400.582031 33.550781 422.949219 56.324219 422.949219 84.410156 Z M 422.949219 84.410156 " fill-opacity="1" fill-rule="nonzero"/><path fill="#c6606c" d="M 412.496094 115.511719 C 403.355469 127.515625 389.058594 135.246094 372.988281 135.246094 C 364.742188 135.246094 356.964844 133.21875 350.109375 129.609375 C 351.046875 127.269531 353.917969 121.058594 359.003906 117.582031 C 365.347656 113.234375 384.625 110.625 398 111.769531 C 405.894531 112.433594 410.25 114.191406 412.496094 115.511719 Z M 412.496094 115.511719 " fill-opacity="1" fill-rule="nonzero"/><path fill="#ffffff" d="M 350.496094 58.609375 L 351.015625 83.441406 C 351.015625 83.441406 351.804688 108.8125 372.4375 108.367188 C 393.082031 107.917969 397.4375 76.578125 397.4375 76.578125 L 394.195312 57.5625 C 394.195312 57.5625 370.066406 41.457031 350.496094 58.609375 Z M 350.496094 58.609375 " fill-opacity="1" fill-rule="nonzero"/><path fill="#ffffff" d="M 372.585938 102.394531 C 372.585938 102.394531 374.113281 111.996094 371.804688 115.136719 C 369.496094 118.28125 376.402344 129.179688 376.402344 129.179688 L 392.386719 114.515625 C 392.386719 114.515625 391.324219 103.757812 391.617188 94.34375 Z M 372.585938 102.394531 " fill-opacity="1" fill-rule="nonzero"/><path fill="#00496a" d="M 350.609375 64.3125 C 350.609375 64.3125 356.550781 66.203125 362.902344 65.644531 C 369.257812 65.082031 371.484375 62.523438 371.484375 62.523438 C 371.484375 62.523438 373.605469 63.417969 377.058594 63.417969 C 380.511719 63.417969 383.078125 61.742188 383.078125 61.742188 C 383.078125 61.742188 380.738281 65.757812 381.738281 70.886719 C 382.734375 76.015625 386.085938 77.347656 386.085938 77.347656 C 386.085938 77.347656 388.207031 72.21875 391.875 72.21875 C 395.546875 72.21875 396.890625 76.117188 395.941406 81.246094 C 394.996094 86.375 389.089844 87.601562 389.089844 87.601562 L 391.605469 94.355469 C 391.605469 94.355469 401.121094 84.148438 402.234375 72.894531 C 403.347656 61.636719 397.667969 58.289062 397.667969 58.289062 C 397.667969 58.289062 398.148438 49.925781 386.988281 47.035156 C 375.832031 44.132812 368.476562 44.359375 360.117188 49.15625 C 360.117188 49.15625 353.097656 43.808594 347.1875 47.035156 C 341.28125 50.269531 342.957031 57.175781 345.847656 58.953125 C 345.847656 58.953125 340.167969 60.402344 341.386719 67.421875 C 342.613281 74.445312 350.796875 73.890625 350.796875 73.890625 Z M 350.609375 64.3125 " fill-opacity="1" fill-rule="nonzero"/><path fill="#d9d9d9" d="M 372.4375 108.367188 C 372.4375 108.367188 387.445312 104.394531 388.921875 94.355469 C 388.921875 94.355469 392.644531 108.90625 372.4375 113.847656 C 372.4375 113.847656 373.042969 109.519531 372.4375 108.367188 Z M 372.4375 108.367188 " fill-opacity="1" fill-rule="nonzero"/><g clip-path="url(#b0654f75a2)"><path fill="#4570b4" d="M 449.683594 53.519531 C 451.761719 40.785156 443.128906 28.773438 430.398438 26.691406 C 417.667969 24.609375 405.660156 33.246094 403.578125 45.980469 C 401.5 58.714844 410.132812 70.726562 422.863281 72.808594 C 435.59375 74.890625 447.601562 66.253906 449.683594 53.519531 Z M 449.683594 53.519531 " fill-opacity="0.4196" fill-rule="nonzero"/></g><path fill="#ffffff" d="M 424 56.042969 L 423.917969 54.960938 C 423.667969 52.703125 424.417969 50.238281 426.507812 47.730469 C 428.390625 45.515625 429.429688 43.882812 429.429688 42 C 429.429688 39.867188 428.089844 38.441406 425.457031 38.398438 C 423.949219 38.398438 422.285156 38.898438 421.234375 39.699219 L 420.238281 37.066406 C 421.621094 36.070312 424 35.394531 426.21875 35.394531 C 431.019531 35.394531 433.195312 38.359375 433.195312 41.539062 C 433.195312 44.378906 431.605469 46.429688 429.597656 48.8125 C 427.757812 50.984375 427.089844 52.828125 427.214844 54.960938 L 427.257812 56.042969 Z M 423.085938 61.898438 C 423.085938 60.347656 424.125 59.265625 425.59375 59.265625 C 427.058594 59.265625 428.058594 60.347656 428.058594 61.898438 C 428.058594 63.363281 427.101562 64.488281 425.550781 64.488281 C 424.085938 64.488281 423.085938 63.363281 423.085938 61.898438 Z M 423.085938 61.898438 " fill-opacity="1" fill-rule="nonzero"/><path fill="#a6d6f7" d="M 386.914062 324.476562 C 386.839844 324.71875 386.746094 324.914062 386.632812 325.070312 C 384.65625 327.929688 382.578125 330.707031 380.382812 333.394531 L 380.371094 333.394531 C 308.988281 421.136719 125.429688 421.136719 125.429688 421.136719 L 125.429688 316.417969 L 386.632812 316.417969 C 386.632812 316.417969 387.640625 322.117188 386.914062 324.476562 Z M 386.914062 324.476562 " fill-opacity="1" fill-rule="nonzero"/><path fill="#8cc6e5" d="M 386.914062 324.476562 C 386.839844 324.71875 386.746094 324.914062 386.632812 325.070312 C 384.65625 327.929688 382.578125 330.710938 380.382812 333.394531 L 380.371094 333.394531 L 125.429688 362.414062 L 125.429688 324.476562 Z M 386.914062 324.476562 " fill-opacity="1" fill-rule="nonzero"/><path fill="#ff6a76" d="M 245.324219 242.339844 L 232.691406 255.738281 C 232.691406 255.738281 230.101562 253.074219 227 248.996094 C 225.523438 247.042969 223.933594 244.765625 222.464844 242.296875 C 220.542969 239.074219 218.816406 235.535156 217.828125 231.988281 C 214.5 220.078125 215.863281 194.957031 215.863281 194.957031 C 215.863281 194.957031 221.25 195.539062 223.089844 197.589844 C 233.460938 209.136719 245.324219 242.339844 245.324219 242.339844 Z M 245.324219 242.339844 " fill-opacity="1" fill-rule="nonzero"/><path fill="#4570b4" d="M 197.828125 286.105469 L 107.351562 286.105469 L 99.085938 216.511719 C 98.140625 208.542969 103.691406 201.292969 111.503906 200.273438 L 116.941406 199.566406 L 186.078125 190.578125 Z M 197.828125 286.105469 " fill-opacity="1" fill-rule="nonzero"/><path fill="#ff6a76" d="M 175.742188 192.886719 C 175.742188 192.886719 146.300781 202.351562 144.699219 204.796875 C 143.105469 207.230469 156.929688 250.390625 156.929688 250.390625 L 154.265625 286.113281 L 214.21875 286.113281 L 217.246094 252.023438 C 217.246094 252.023438 223.660156 244.980469 224.058594 233.339844 C 224.453125 221.703125 215.863281 194.957031 215.863281 194.957031 L 194.949219 192.210938 Z M 175.742188 192.886719 " fill-opacity="1" fill-rule="nonzero"/><path fill="#00496a" d="M 184.164062 125.84375 C 184.164062 125.84375 163.644531 117.011719 149.074219 137.609375 C 134.503906 158.203125 149.597656 190.578125 149.597656 190.578125 C 149.597656 190.578125 186.773438 185.71875 197.058594 184.730469 C 207.34375 183.742188 209.433594 183.742188 209.433594 183.742188 C 209.433594 183.742188 214.738281 151.214844 203.421875 139.25 C 192.097656 127.296875 184.164062 125.84375 184.164062 125.84375 Z M 184.164062 125.84375 " fill-opacity="1" fill-rule="nonzero"/><path fill="#ffffff" d="M 191.796875 206.171875 L 174.472656 194.289062 C 174.472656 194.289062 175.898438 189.746094 175.542969 185.199219 C 175.460938 184.191406 175.292969 183.179688 175 182.222656 C 174.855469 181.746094 174.679688 181.277344 174.472656 180.820312 L 191.796875 179.957031 C 191.796875 179.957031 191.910156 181.359375 192.234375 183.171875 C 192.492188 184.585938 192.878906 186.25 193.460938 187.695312 C 193.875 188.765625 194.398438 189.714844 195.042969 190.371094 C 197.695312 193.0625 191.796875 206.171875 191.796875 206.171875 Z M 191.796875 206.171875 " fill-opacity="1" fill-rule="nonzero"/><path fill="#d9d9d9" d="M 193.460938 187.695312 C 191.234375 187.769531 181.679688 187.914062 175.542969 185.199219 C 175.460938 184.191406 175.292969 183.179688 175.003906 182.222656 C 175.003906 182.222656 186.679688 183.648438 192.234375 183.171875 C 192.496094 184.585938 192.878906 186.25 193.460938 187.695312 Z M 193.460938 187.695312 " fill-opacity="1" fill-rule="nonzero"/><path fill="#ffffff" d="M 201.554688 133.65625 L 204.445312 157.539062 C 204.445312 157.539062 208.230469 182.152344 188.378906 184.535156 C 168.523438 186.925781 161.847656 163.96875 161.847656 163.96875 L 159.496094 138.617188 C 159.488281 138.617188 180.433594 119.882812 201.554688 133.65625 Z M 201.554688 133.65625 " fill-opacity="1" fill-rule="nonzero"/><path fill="#00496a" d="M 192.496094 135.507812 C 192.496094 135.507812 189.894531 141.894531 181.355469 146.429688 C 173.785156 150.445312 166.683594 151.558594 166.683594 151.558594 C 166.683594 151.558594 165.539062 158.289062 161.710938 162.5 C 161.710938 162.5 155.078125 149.914062 157.792969 139.074219 C 160.496094 128.234375 174.484375 123.003906 186.765625 124.105469 C 199.035156 125.207031 203.457031 129.710938 205.089844 136.867188 C 206.722656 144.027344 203.996094 153.699219 203.996094 153.699219 C 203.996094 153.699219 201.367188 137.742188 192.496094 135.507812 Z M 192.496094 135.507812 " fill-opacity="1" fill-rule="nonzero"/><path fill="#68a8de" d="M 159.484375 157.238281 C 159.484375 157.238281 157.125 139.074219 171.125 129.429688 C 180.242188 123.148438 191.726562 124.824219 191.726562 124.824219 C 191.726562 124.824219 184.488281 119.371094 170.230469 125.664062 C 155.972656 131.960938 155.242188 146.191406 156.6875 157.238281 Z M 159.484375 157.238281 " fill-opacity="1" fill-rule="nonzero"/><path fill="#375c93" d="M 127.988281 286.101562 L 107.34375 286.101562 L 99.074219 216.511719 C 98.128906 208.542969 103.683594 201.292969 111.492188 200.273438 L 116.929688 199.566406 Z M 127.988281 286.101562 " fill-opacity="1" fill-rule="nonzero"/><path fill="#375c93" d="M 178.859375 180.164062 C 169.386719 180.164062 162.355469 173.570312 162.046875 173.265625 L 163.3125 171.882812 C 163.386719 171.957031 171.070312 179.132812 180.679688 178.175781 L 180.859375 180.058594 C 180.183594 180.132812 179.515625 180.164062 178.859375 180.164062 Z M 178.859375 180.164062 " fill-opacity="1" fill-rule="nonzero"/><path fill="#68a8de" d="M 413.566406 325.070312 L 129.691406 325.070312 C 122.101562 325.070312 114.863281 321.941406 109.816406 316.457031 L 94.230469 299.542969 C 88.175781 292.980469 92.992188 282.585938 102.082031 282.585938 L 379.207031 282.585938 C 388.785156 282.585938 397.988281 286.1875 404.875 292.625 L 420.878906 307.574219 C 427.691406 313.929688 423.03125 325.070312 413.566406 325.070312 Z M 413.566406 325.070312 " fill-opacity="1" fill-rule="nonzero"/><path fill="#ffffff" d="M 284.117188 198.953125 C 283.605469 199.230469 282.804688 199.699219 281.929688 200.21875 L 281.765625 199.949219 C 284.363281 198.296875 288.203125 195.707031 287.941406 195.082031 C 287.546875 194.136719 285.601562 194.632812 284.15625 195.414062 C 283.324219 195.871094 281.808594 196.777344 280.339844 197.660156 L 280.234375 197.496094 C 282.816406 195.863281 287.109375 193.023438 286.828125 192.355469 C 286.433594 191.410156 284.488281 191.910156 283.042969 192.6875 C 282.128906 193.1875 280.390625 194.226562 278.800781 195.183594 L 278.675781 194.988281 C 281.234375 193.332031 284.5625 191.046875 284.324219 190.464844 C 283.929688 189.515625 281.984375 190.015625 280.539062 190.796875 C 278.582031 191.855469 272.914062 195.363281 272.914062 195.363281 L 268.785156 196.871094 C 269.679688 195.425781 272.1875 190.066406 271.011719 190.066406 C 269.835938 190.066406 266.613281 193.800781 265.269531 197.652344 C 264.273438 200.53125 264.148438 203.101562 264.148438 204.203125 L 227.945312 250.214844 C 227.945312 250.214844 228.800781 251.554688 230.101562 253.355469 C 233.855469 258.546875 242.601562 259.691406 247.65625 255.75 C 251.648438 252.628906 254.789062 248.507812 257.878906 244.296875 C 263.691406 236.371094 272.351562 215.324219 274.382812 210.289062 L 282.578125 202.613281 C 284.824219 201.15625 287.683594 199.191406 287.472656 198.671875 C 287.121094 197.828125 285.394531 198.265625 284.117188 198.953125 Z M 284.117188 198.953125 " fill-opacity="1" fill-rule="nonzero"/><path fill="#00496a" d="M 188.886719 293.78125 C 188.886719 293.78125 193.117188 296.902344 194.792969 301.132812 C 196.46875 305.367188 185.765625 308.09375 167.910156 302.03125 C 154.921875 297.617188 176.851562 284.074219 188.886719 293.78125 Z M 188.886719 293.78125 " fill-opacity="1" fill-rule="nonzero"/><path fill="#00496a" d="M 182.167969 181.308594 L 179.777344 181.308594 C 178.921875 181.308594 178.226562 180.601562 178.226562 179.738281 L 178.226562 178.261719 C 178.226562 177.398438 178.921875 176.691406 179.777344 176.691406 L 182.167969 176.691406 C 183.019531 176.691406 183.71875 177.398438 183.71875 178.261719 L 183.71875 179.738281 C 183.707031 180.601562 183.019531 181.308594 182.167969 181.308594 Z M 182.167969 181.308594 " fill-opacity="1" fill-rule="nonzero"/><path fill="#4570b4" d="M 169.71875 162.625 C 171.042969 169.242188 167.597656 175.546875 162.023438 176.699219 C 156.449219 177.855469 150.867188 173.421875 149.535156 166.808594 C 148.214844 160.191406 151.65625 153.886719 157.230469 152.734375 C 162.804688 151.578125 168.398438 156.007812 169.71875 162.625 Z M 169.71875 162.625 " fill-opacity="1" fill-rule="nonzero"/><path fill="#68a8de" d="M 164.105469 163.789062 C 164.882812 167.691406 162.855469 171.417969 159.570312 172.09375 C 156.28125 172.769531 152.984375 170.15625 152.207031 166.257812 C 151.425781 162.355469 153.453125 158.628906 156.742188 157.953125 C 160.027344 157.269531 163.324219 159.890625 164.105469 163.789062 Z M 164.105469 163.789062 " fill-opacity="1" fill-rule="nonzero"/><path fill="#ff6a76" d="M 149.542969 202.1875 C 149.542969 202.1875 144.492188 202.945312 142.429688 206.210938 C 133.632812 220.214844 116.515625 263.042969 116.515625 263.042969 L 133.03125 270.34375 C 133.03125 270.34375 154.746094 245.179688 156.742188 233.207031 C 158.738281 221.234375 149.542969 202.1875 149.542969 202.1875 Z M 149.542969 202.1875 " fill-opacity="1" fill-rule="nonzero"/><path fill="#ffffff" d="M 131.46875 266.691406 L 165.363281 288.746094 L 160.578125 299.367188 C 160.578125 299.367188 130.074219 288.402344 120.695312 281.308594 C 111.324219 274.203125 116.503906 263.042969 116.503906 263.042969 C 116.503906 263.042969 121.703125 262.425781 131.46875 266.691406 Z M 131.46875 266.691406 " fill-opacity="1" fill-rule="nonzero"/><path fill="#ffffff" d="M 164.375 288.402344 C 164.375 288.402344 175.804688 287.863281 179.921875 287.863281 C 184.039062 287.863281 191.214844 294.621094 190.425781 296.785156 C 189.625 298.949219 181.386719 292.324219 181.386719 292.324219 L 180.921875 293.207031 C 180.921875 293.207031 188.230469 297.671875 188.625 299.367188 C 189.023438 301.0625 187.367188 300.792969 184.976562 299.773438 C 182.585938 298.753906 178.996094 296.453125 178.996094 296.453125 L 178.601562 296.933594 C 178.601562 296.933594 185.515625 301.195312 185.515625 302.746094 C 185.515625 304.308594 180.535156 302.539062 176.875 300.105469 L 176.40625 300.855469 C 176.40625 300.855469 180.929688 303.152344 181.261719 304.640625 C 181.597656 306.128906 179.132812 305.523438 176.40625 304.234375 C 173.683594 302.945312 171.15625 302.808594 167.628906 302.269531 C 164.105469 301.726562 159.921875 299.117188 159.921875 299.117188 Z M 164.375 288.402344 " fill-opacity="1" fill-rule="nonzero"/><path fill="#4570b4" d="M 374.519531 226.550781 L 358.265625 308.09375 L 237.835938 308.09375 L 253.996094 227.015625 C 254.339844 225.300781 255.816406 224.074219 257.535156 224.074219 L 372.53125 224.074219 C 373.8125 224.074219 374.777344 225.269531 374.519531 226.550781 Z M 374.519531 226.550781 " fill-opacity="1" fill-rule="nonzero"/><path fill="#00496a" d="M 237.835938 308.09375 L 204.753906 297.328125 C 203.589844 296.941406 202.800781 295.859375 202.800781 294.621094 C 202.800781 293.050781 204.070312 291.78125 205.640625 291.78125 L 241.101562 291.78125 Z M 237.835938 308.09375 " fill-opacity="1" fill-rule="nonzero"/><path fill="#c6606c" d="M 151.011719 205.492188 C 151.011719 205.492188 158.414062 226.445312 153.933594 240.832031 C 153.933594 240.832031 169.074219 224 151.011719 205.492188 Z M 151.011719 205.492188 " fill-opacity="1" fill-rule="nonzero"/><path fill="#c6606c" d="M 227 248.996094 C 225.523438 247.042969 223.929688 244.765625 222.464844 242.296875 C 225.523438 230.285156 218.410156 203.527344 218.410156 203.527344 C 234 223.40625 229.652344 241.871094 227 248.996094 Z M 227 248.996094 " fill-opacity="1" fill-rule="nonzero"/><path fill="#375c93" d="M 261.246094 228.910156 L 358.265625 308.09375 L 247.644531 308.09375 Z M 261.246094 228.910156 " fill-opacity="1" fill-rule="nonzero"/><path fill="#a6d6f7" d="M 319.558594 279.367188 C 324.496094 277.332031 326.855469 271.679688 324.820312 266.738281 C 322.789062 261.796875 317.136719 259.4375 312.195312 261.472656 C 307.257812 263.503906 304.902344 269.15625 306.933594 274.097656 C 308.964844 279.039062 314.617188 281.398438 319.558594 279.367188 Z M 319.558594 279.367188 " fill-opacity="1" fill-rule="nonzero"/><path fill="#ffa9b3" d="M 175.429688 189.507812 L 191.796875 206.160156 C 191.796875 206.160156 188.960938 210.175781 184.238281 210.070312 C 179.515625 209.957031 176.855469 203.953125 175.523438 200.824219 C 174.179688 197.691406 171.457031 194.28125 171.457031 194.28125 Z M 175.429688 189.507812 " fill-opacity="1" fill-rule="nonzero"/><path fill="#ffa9b3" d="M 191.796875 206.171875 C 191.796875 206.171875 196.019531 208.738281 200.136719 206.949219 C 204.257812 205.171875 203.144531 202.445312 201.699219 199.566406 C 200.253906 196.695312 198.691406 191.566406 198.691406 191.566406 L 193.992188 188.859375 C 193.992188 188.859375 194.824219 199.816406 191.796875 206.171875 Z M 191.796875 206.171875 " fill-opacity="1" fill-rule="nonzero"/><path fill="#c6606c" d="M 217.035156 238.347656 L 175.792969 242.339844 C 175.792969 242.339844 185.039062 248.976562 199.273438 246.96875 C 213.511719 244.960938 217.035156 238.347656 217.035156 238.347656 Z M 217.035156 238.347656 " fill-opacity="1" fill-rule="nonzero"/><path fill="#4570b4" d="M 124.847656 104.195312 L 50.261719 104.195312 C 45.507812 104.195312 41.648438 108.054688 41.648438 112.808594 L 41.648438 132.582031 C 41.648438 137.335938 45.507812 141.195312 50.261719 141.195312 L 113.09375 141.195312 L 133.457031 152.972656 L 133.457031 112.808594 C 133.457031 108.054688 129.597656 104.195312 124.847656 104.195312 Z M 124.847656 104.195312 " fill-opacity="0.4196" fill-rule="nonzero"/><path stroke-linecap="round" transform="matrix(0.732897, 0, 0, 0.733395, 0.000462197, 26.384363)" fill="none" stroke-linejoin="round" d="M 64.64539 118.294079 L 170.656548 118.294079 " stroke="#ffffff" stroke-width="1" stroke-opacity="1" stroke-miterlimit="10"/><path stroke-linecap="round" transform="matrix(0.732897, 0, 0, 0.733395, 0.000462197, 26.384363)" fill="none" stroke-linejoin="round" d="M 64.64539 131.23156 L 170.656548 131.23156 " stroke="#ffffff" stroke-width="1" stroke-opacity="1" stroke-miterlimit="10"/><path stroke-linecap="round" transform="matrix(0.732897, 0, 0, 0.733395, 0.000462197, 26.384363)" fill="none" stroke-linejoin="round" d="M 64.64539 144.169041 L 170.656548 144.169041 " stroke="#ffffff" stroke-width="1" stroke-opacity="1" stroke-miterlimit="10"/><path fill="#c6606c" d="M 129.121094 334.140625 C 131.074219 317.996094 118.335938 320.421875 109.621094 328.941406 C 100.90625 337.460938 92.367188 332.707031 102.03125 316.789062 C 111.691406 300.875 118.761719 295.984375 117.429688 287.976562 C 116.089844 279.964844 109.109375 283.472656 97.027344 290.128906 C 84.941406 296.785156 96.363281 279.394531 95.445312 262.894531 C 94.53125 246.398438 78.152344 254.636719 76.78125 268.535156 C 75.40625 282.421875 81.605469 297.972656 73.648438 294.894531 C 65.703125 291.804688 60.890625 273.359375 53.660156 282.066406 C 46.433594 290.773438 74.066406 320.308594 73.140625 329.222656 C 72.214844 338.136719 52.328125 310.964844 46.621094 319.910156 C 40.910156 328.859375 65.621094 388.589844 87.011719 386.914062 C 114.1875 384.792969 127.164062 350.285156 129.121094 334.140625 Z M 129.121094 334.140625 " fill-opacity="1" fill-rule="nonzero"/><path stroke-linecap="butt" transform="matrix(0.732897, 0, 0, 0.733395, 0.000462197, 26.384363)" fill="none" stroke-linejoin="miter" d="M 116.083986 332.83043 C 116.083986 332.83043 111.431008 358.300596 113.285803 390.599025 C 115.145929 422.913433 119.372518 504.186806 119.372518 504.186806 " stroke="#aa4451" stroke-width="1" stroke-opacity="1" stroke-miterlimit="10"/><path stroke-linecap="butt" transform="matrix(0.732897, 0, 0, 0.733395, 0.000462197, 26.384363)" fill="none" stroke-linejoin="miter" d="M 84.397896 364.841241 C 84.397896 364.841241 105.823982 390.258145 113.600266 395.861368 C 113.600266 395.861368 141.272962 369.208773 146.549536 364.841241 " stroke="#aa4451" stroke-width="1" stroke-opacity="1" stroke-miterlimit="10"/><path stroke-linecap="butt" transform="matrix(0.732897, 0, 0, 0.733395, 0.000462197, 26.384363)" fill="none" stroke-linejoin="miter" d="M 71.744779 415.717659 C 71.744779 415.717659 103.953197 448.117287 116.553015 450.258442 L 163.946239 418.497965 " stroke="#aa4451" stroke-width="1" stroke-opacity="1" stroke-miterlimit="10"/><path fill="#ff6a76" d="M 77.734375 377.75 C 77.734375 377.75 87.96875 355.113281 82.457031 342.953125 C 76.945312 330.792969 69.042969 337.929688 66.558594 347.625 C 64.070312 357.320312 56.054688 357.621094 56.054688 342.339844 C 56.054688 327.058594 58.933594 320.597656 54.578125 315.550781 C 50.21875 310.507812 46.820312 315.9375 41.171875 325.769531 C 35.523438 335.597656 36.128906 318.515625 28.453125 307.324219 C 20.777344 296.132812 12.800781 308.90625 17.75 319.246094 C 22.710938 329.574219 33.695312 337.84375 26.800781 339.074219 C 19.90625 340.300781 8.664062 329.398438 7.300781 338.59375 C 5.9375 347.789062 37.925781 356.726562 41.066406 363.371094 C 44.21875 370.019531 18.6875 359.441406 18.488281 368.15625 C 18.292969 376.875 48.003906 392.167969 61.460938 389.886719 C 74.917969 387.609375 77.734375 377.75 77.734375 377.75 Z M 77.734375 377.75 " fill-opacity="1" fill-rule="nonzero"/><path stroke-linecap="butt" transform="matrix(0.732897, 0, 0, 0.733395, 0.000462197, 26.384363)" fill="none" stroke-linejoin="miter" d="M 32.50626 392.330059 C 32.50626 392.330059 85.650416 477.672693 96.827158 504.186806 " stroke="#aa4451" stroke-width="1" stroke-opacity="1" stroke-miterlimit="10"/><path stroke-linecap="butt" transform="matrix(0.732897, 0, 0, 0.733395, 0.000462197, 26.384363)" fill="none" stroke-linejoin="miter" d="M 23.797249 432.841578 L 61.170313 439.504727 L 68.861318 407.376738 " stroke="#aa4451" stroke-width="1" stroke-opacity="1" stroke-miterlimit="10"/><path stroke-linecap="butt" transform="matrix(0.732897, 0, 0, 0.733395, 0.000462197, 26.384363)" fill="none" stroke-linejoin="miter" d="M 43.544425 471.179984 L 83.475828 478.088141 L 99.934474 441.848281 " stroke="#aa4451" stroke-width="1" stroke-opacity="1" stroke-miterlimit="10"/><path fill="#375c93" d="M 60.335938 396.152344 L 109.828125 396.152344 L 105.574219 421.136719 L 65.496094 421.136719 Z M 60.335938 396.152344 " fill-opacity="1" fill-rule="nonzero"/><path fill="#4570b4" d="M 110.433594 403.058594 L 60.179688 403.058594 C 58.332031 403.058594 56.84375 401.558594 56.84375 399.71875 L 56.84375 397.066406 C 56.84375 395.214844 58.339844 393.726562 60.179688 393.726562 L 110.433594 393.726562 C 112.285156 393.726562 113.769531 395.226562 113.769531 397.066406 L 113.769531 399.71875 C 113.78125 401.558594 112.285156 403.058594 110.433594 403.058594 Z M 110.433594 403.058594 " fill-opacity="1" fill-rule="nonzero"/><g clip-path="url(#17fc36ade8)"><path fill="#4570b4" d="M 289.347656 423.875 C 308.324219 423.875 323.707031 408.484375 323.707031 389.503906 C 323.707031 370.523438 308.324219 355.132812 289.347656 355.132812 C 270.371094 355.132812 254.984375 370.523438 254.984375 389.503906 C 254.984375 408.484375 270.371094 423.875 289.347656 423.875 Z M 289.347656 423.875 " fill-opacity="0.4196" fill-rule="nonzero"/></g><path fill="#ffffff" d="M 310.9375 376.8125 L 267.746094 376.8125 C 266.5625 376.8125 265.605469 377.769531 265.605469 378.957031 L 265.605469 402.757812 C 265.605469 403.941406 266.5625 404.898438 267.746094 404.898438 L 310.9375 404.898438 C 312.121094 404.898438 313.078125 403.941406 313.078125 402.757812 L 313.078125 378.957031 C 313.078125 377.769531 312.121094 376.8125 310.9375 376.8125 Z M 311.582031 380.246094 L 291.300781 393.507812 C 291.125 393.625 290.925781 393.675781 290.730469 393.675781 C 290.550781 393.675781 290.375 393.632812 290.21875 393.539062 L 266.601562 380.277344 C 266.101562 379.996094 265.925781 379.363281 266.207031 378.863281 C 266.488281 378.363281 267.121094 378.1875 267.621094 378.464844 L 290.699219 391.417969 L 310.445312 378.5 C 310.925781 378.1875 311.570312 378.320312 311.882812 378.800781 C 312.195312 379.289062 312.058594 379.933594 311.582031 380.246094 Z M 311.582031 380.246094 " fill-opacity="1" fill-rule="nonzero"/><path fill="#ffa9b3" d="M 315.875 385.800781 C 322.914062 385.800781 328.617188 380.09375 328.617188 373.058594 C 328.617188 366.019531 322.914062 360.3125 315.875 360.3125 C 308.839844 360.3125 303.136719 366.019531 303.136719 373.058594 C 303.136719 380.09375 308.839844 385.800781 315.875 385.800781 Z M 315.875 385.800781 " fill-opacity="1" fill-rule="nonzero"/></svg>